<svg
  xmlns="http://www.w3.org/2000/svg" viewBox="0 0 2560 1171">
  <defs>
    <style>.a{fill:none}.b{isolation:isolate}.c{fill:#ebf2ed}.d{clip-path:url(#a)}.e,.f{fill:#d2ece4;opacity:.2;mix-blend-mode:multiply}.f{fill:#8ed0bc}</style>
    <clipPath id="a">
      <path class="a" d="M0-32h2560v1203H0z"/>
    </clipPath>
  </defs>
  <title>HEADER</title>
  <g class="b">
    <path class="c" d="M0 0h2560v1171H0z"/>
    <g class="d">
      <path class="e" d="M0 0h418.09L0 400.5V0zm0 840.2L877.1 0h506.36L0 1325.26V840.2zm0 894.11v-10.72L1799.22 0h75.22L64.03 1734.31H0z"/>
      <path class="f" d="M0 1325.3L1383.46 0h415.76L0 1723.59V1325.3z"/>
      <path class="e" d="M-311.32 1325.51L1072.14.25h415.76L-311.32 1723.78v-398.27zm776.28 408.8L2275.38 0h285.05v139.32L895.45 1734.31H464.96zm1245.47 0l850-818.2v599.23l-227.48 218.97h-622.52zm-458.03 0L2560.43 475.22v253.42L1515.68 1734.31H1252.4z"/>
      <path class="f" d="M1515.68 1734.31L2560.43 728.64v187.47l-850 818.2h-194.75z"/>
      <path class="e" d="M1515.68 1734.31L2560.43 728.64v187.47l-850 818.2h-194.75z"/>
    </g>
    <g class="d">
      <path class="e" d="M0 0h418.09L0 400.5V0zm0 840.2L877.1 0h506.36L0 1325.26V840.2zm0 894.11v-10.72L1799.22 0h75.22L64.03 1734.31H0z"/>
      <path class="f" d="M-390.54 1325.26L992.92 0h415.76L-390.54 1723.53v-398.27z"/>
      <path class="e" d="M-242.97 1325.51L1140.49.25h415.75L-242.97 1723.78v-398.27zm707.93 408.8L2275.38 0h285.05v139.32L895.45 1734.31H464.96zm1245.47 0l850-818.2v599.23l-227.48 218.97h-622.52zm-458.03 0L2560.43 475.22v253.42L1515.68 1734.31H1252.4z"/>
      <path class="f" d="M1515.68 1734.31L2560.43 728.64v187.47l-850 818.2h-194.75z"/>
      <path class="e" d="M1515.68 1734.31L2560.43 728.64v187.47l-850 818.2h-194.75z"/>
    </g>
  </g>
</svg>
